<svg xmlns="http://www.w3.org/2000/svg" width="128" height="128" viewBox="50 50 700 700">
  <g transform="translate(0,800) scale(0.1,-0.1)" fill="#C5C5C5" stroke="none">
    <path d="M2024 6314 c-319 -53 -581 -275 -685 -577 -54 -159 -53 -137 -57 -1472 -2 -893 0 -1255 8 -1295 33 -159 45 -202 81 -278 117 -253 337 -428 614 -488 71 -15 140 -17 623 -15 519 2 543 1 538 -16 -3 -10 -44 -155 -92 -322 -74 -261 -86 -312 -82 -362 5 -69 39 -126 100 -166 l42 -28 865 -3 c606 -2 877 0 904 8 49 14 106 65 128 115 33 71 25 119 -71 455 -49 173 -90 316 -90 317 0 2 242 3 538 3 332 0 561 4 598 11 299 53 548 251 661 526 20 50 34 104 63 243 17 82 9 2507 -8 2610 -68 397 -362 684 -756 739 -53 8 -659 11 -1959 10 -1537 -1 -1897 -4 -1963 -15z m3890 -403 c181 -32 340 -181 376 -354 7 -36 10 -445 8 -1337 l-3 -1285 -32 -68 c-38 -80 -122 -173 -191 -210 -114 -61 30 -58 -2097 -55 l-1940 3 -65 31 c-76 36 -170 118 -207 181 -14 24 -34 71 -44 104 -18 58 -19 115 -19 1333 0 1387 -3 1312 56 1427 34 68 118 145 203 187 l75 37 920 5 c1997 11 2901 11 2960 1z m-1422 -3965 c37 -132 66 -241 64 -243 -1 -2 -253 -2 -558 -1 l-555 3 62 226 c34 125 65 234 68 243 6 15 47 16 429 14 l423 -3 67 -239z"/>
    <path d="M5504 5412 c-17 -9 -292 -275 -610 -590 l-579 -574 -365 371 c-256 260 -376 376 -402 386 -55 22 -134 19 -191 -8 -36 -17 -177 -151 -592 -560 -526 -520 -545 -540 -560 -592 -39 -134 53 -255 196 -255 33 0 67 7 86 18 35 19 274 249 691 665 l273 272 367 -372 c267 -271 378 -377 407 -389 55 -23 142 -21 191 4 58 30 1349 1326 1369 1374 39 95 -2 200 -97 249 -48 24 -141 25 -184 1z"/>
  </g>
</svg>
